[Header]
FileType HTR
DataType HTRS
FileVersion 1
NumSegments 64
NumFrames 4
DataFrameRate 30
EulerRotationOrder ZYX
CalibrationUnits mm
RotationUnits Degrees
GlobalAxisofGravity Y
BoneLengthAxis Y
ScaleFactor 1.0
[SegmentNames&Hierarchy]
Hips	GLOBAL
Spine	Hips
Spine1	Spine
Spine2	Spine1
Neck	Spine2
Head	Neck
LeftEye	Head
RightEye	Head
LeftShoulder	Spine2
LeftArm	LeftShoulder
LeftForeArm	LeftArm
LeftHand	LeftForeArm
LeftHandThumb1	LeftHand
LeftHandThumb2	LeftHandThumb1
LeftHandThumb3	LeftHandThumb2
LeftHandThumb4	LeftHandThumb3
LeftHandIndex1	LeftHand
LeftHandIndex2	LeftHandIndex1
LeftHandIndex3	LeftHandIndex2
LeftHandIndex4	LeftHandIndex3
LeftHandMiddle1	LeftHand
LeftHandMiddle2	LeftHandMiddle1
LeftHandMiddle3	LeftHandMiddle2
LeftHandMiddle4	LeftHandMiddle3
LeftHandRing1	LeftHand
LeftHandRing2	LeftHandRing1
LeftHandRing3	LeftHandRing2
LeftHandRing4	LeftHandRing3
LeftHandPinky1	LeftHand
LeftHandPinky2	LeftHandPinky1
LeftHandPinky3	LeftHandPinky2
LeftHandPinky4	LeftHandPinky3
RightShoulder	Spine2
RightArm	RightShoulder
RightForeArm	RightArm
RightHand	RightForeArm
RightHandPinky1	RightHand
RightHandPinky2	RightHandPinky1
RightHandPinky3	RightHandPinky2
RightHandPinky4	RightHandPinky3
RightHandRing1	RightHand
RightHandRing2	RightHandRing1
RightHandRing3	RightHandRing2
RightHandRing4	RightHandRing3
RightHandMiddle1	RightHand
RightHandMiddle2	RightHandMiddle1
RightHandMiddle3	RightHandMiddle2
RightHandMiddle4	RightHandMiddle3
RightHandIndex1	RightHand
RightHandIndex2	RightHandIndex1
RightHandIndex3	RightHandIndex2
RightHandIndex4	RightHandIndex3
RightHandThumb1	RightHand
RightHandThumb2	RightHandThumb1
RightHandThumb3	RightHandThumb2
RightHandThumb4	RightHandThumb3
LeftUpLeg	Hips
LeftLeg	LeftUpLeg
LeftFoot	LeftLeg
LeftToeBase	LeftFoot
RightUpLeg	Hips
RightLeg	RightUpLeg
RightFoot	RightLeg
RightToeBase	RightFoot
[BasePosition]
Hips	0	0	0	0	0	0	1
Spine	0	0	0	0	0	0	1
Spine1	0	0	0	0	0	0	1
Spine2	0	0	0	0	0	0	1
Neck	0	0	0	0	0	0	1
Head	0	0	0	0	0	0	1
LeftEye	0	0	0	0	0	0	1
RightEye	0	0	0	0	0	0	1
LeftShoulder	0	0	0	0	0	0	1
LeftArm	0	0	0	0	0	0	1
LeftForeArm	0	0	0	0	0	0	1
LeftHand	0	0	0	0	0	0	1
LeftHandThumb1	0	0	0	0	0	0	1
LeftHandThumb2	0	0	0	0	0	0	1
LeftHandThumb3	0	0	0	0	0	0	1
LeftHandThumb4	0	0	0	0	0	0	1
LeftHandIndex1	0	0	0	0	0	0	1
LeftHandIndex2	0	0	0	0	0	0	1
LeftHandIndex3	0	0	0	0	0	0	1
LeftHandIndex4	0	0	0	0	0	0	1
LeftHandMiddle1	0	0	0	0	0	0	1
LeftHandMiddle2	0	0	0	0	0	0	1
LeftHandMiddle3	0	0	0	0	0	0	1
LeftHandMiddle4	0	0	0	0	0	0	1
LeftHandRing1	0	0	0	0	0	0	1
LeftHandRing2	0	0	0	0	0	0	1
LeftHandRing3	0	0	0	0	0	0	1
LeftHandRing4	0	0	0	0	0	0	1
LeftHandPinky1	0	0	0	0	0	0	1
LeftHandPinky2	0	0	0	0	0	0	1
LeftHandPinky3	0	0	0	0	0	0	1
LeftHandPinky4	0	0	0	0	0	0	1
RightShoulder	0	0	0	0	0	0	1
RightArm	0	0	0	0	0	0	1
RightForeArm	0	0	0	0	0	0	1
RightHand	0	0	0	0	0	0	1
RightHandPinky1	0	0	0	0	0	0	1
RightHandPinky2	0	0	0	0	0	0	1
RightHandPinky3	0	0	0	0	0	0	1
RightHandPinky4	0	0	0	0	0	0	1
RightHandRing1	0	0	0	0	0	0	1
RightHandRing2	0	0	0	0	0	0	1
RightHandRing3	0	0	0	0	0	0	1
RightHandRing4	0	0	0	0	0	0	1
RightHandMiddle1	0	0	0	0	0	0	1
RightHandMiddle2	0	0	0	0	0	0	1
RightHandMiddle3	0	0	0	0	0	0	1
RightHandMiddle4	0	0	0	0	0	0	1
RightHandIndex1	0	0	0	0	0	0	1
RightHandIndex2	0	0	0	0	0	0	1
RightHandIndex3	0	0	0	0	0	0	1
RightHandIndex4	0	0	0	0	0	0	1
RightHandThumb1	0	0	0	0	0	0	1
RightHandThumb2	0	0	0	0	0	0	1
RightHandThumb3	0	0	0	0	0	0	1
RightHandThumb4	0	0	0	0	0	0	1
LeftUpLeg	0	0	0	0	0	0	1
LeftLeg	0	0	0	0	0	0	1
LeftFoot	0	0	0	0	0	0	1
LeftToeBase	0	0	0	0	0	0	1
RightUpLeg	0	0	0	0	0	0	1
RightLeg	0	0	0	0	0	0	1
RightFoot	0	0	0	0	0	0	1
RightToeBase	0	0	0	0	0	0	1
[Hips]
269	139.8301544	979.458374	-256.340332	-17.97461128	-44.09984589	-344.5740662	1.0
270	129.5238647	989.7243652	-265.3436584	-13.59218979	-44.1424675	-351.5316162	1.0
271	115.4726563	993.8312988	-277.862854	-9.578508377	-43.69073486	-357.3778992	1.0
272	104.9817963	1000.697632	-290.8574829	-5.404479504	-41.81629944	-362.3624573	1.0
[Spine]
269	0	101.8159943	1.315000057	16.47707367	11.82362747	0.9934325814	1.0
270	0	101.8159943	1.315000057	16.16911125	15.21617508	7.559159279	1.0
271	0	101.8159943	1.315000057	15.26243591	19.97924614	10.79176807	1.0
272	0	101.8159943	1.315000057	14.26562595	24.17341995	14.42424965	1.0
[Spine1]
269	0	100.8349991	-10.00800037	0.1798153818	2.09586072	-8.739320755	1.0
270	0	100.8349991	-10.00800037	1.18689537	2.698268175	-8.382172585	1.0
271	0	100.8349991	-10.00800037	1.982478261	3.332463026	-6.543638706	1.0
272	0	100.8349991	-10.00800037	2.506722927	3.896507025	-5.302283287	1.0
[Spine2]
269	0	91	-13.73399925	0.4332515597	1.887259603	-8.772130966	1.0
270	0	91	-13.73399925	1.511020899	2.520372868	-8.379295349	1.0
271	0	91	-13.73399925	2.313668728	3.197019577	-6.495115757	1.0
272	0	91	-13.73399925	2.849450111	3.782823324	-5.202655315	1.0
[Neck]
269	0	166.7169952	-25.16200066	-7.755979538	8.481520653	-1.465021849	1.0
270	0	166.7169952	-25.16200066	-6.444438934	8.791210175	-2.528687477	1.0
271	0	166.7169952	-25.16200066	-4.886404037	9.003062248	-3.722922087	1.0
272	0	166.7169952	-25.16200066	-3.342983723	8.974718094	-4.666379452	1.0
[Head]
269	0	96.17900085	16.84999847	-2.534987688	40.70597076	0.4630771875	1.0
270	0	96.17900085	16.84999847	-0.88583529	41.04483032	-0.01197748352	1.0
271	0	96.17900085	16.84999847	0.5424069762	40.65361404	-0.3141872287	1.0
272	0	96.17900085	16.84999847	1.148918033	39.24734497	-0.6107182503	1.0
[LeftEye]
269	30.6760006	64.09500122	92.83599854	0	0	0	1.0
270	30.6760006	64.09500122	92.83599854	0	0	0	1.0
271	30.6760006	64.09500122	92.83599854	0	0	0	1.0
272	30.6760006	64.09500122	92.83599854	0	0	0	1.0
[RightEye]
269	-30.6760006	64.09500122	92.83499908	0	0	0	1.0
270	-30.6760006	64.09500122	92.83499908	0	0	0	1.0
271	-30.6760006	64.09500122	92.83499908	0	0	0	1.0
272	-30.6760006	64.09500122	92.83499908	0	0	0	1.0
[LeftShoulder]
269	45.70400238	109.4599991	-26.28000069	-1.072942495	8.265319824	-15.61332893	1.0
270	45.70400238	109.4599991	-26.28000069	-1.385584474	9.451003075	-16.43953514	1.0
271	45.70400238	109.4599991	-26.28000069	-1.71162641	10.79791164	-16.5736599	1.0
272	45.70400238	109.4599991	-26.28000069	-1.863986015	11.37934208	-16.77777481	1.0
[LeftArm]
269	105.923996	-5.24600029	-22.32099915	35.40347672	5.817200661	-31.42403793	1.0
270	105.923996	-5.24600029	-22.32099915	24.38467216	17.86304283	-30.42324066	1.0
271	105.923996	-5.24600029	-22.32099915	9.867285728	30.35967636	-30.61303139	1.0
272	105.923996	-5.24600029	-22.32099915	3.413768768	36.08718872	-28.57740784	1.0
[LeftForeArm]
269	278.414978	-0.0009999999311	0	3.812159548e-07	-15.01584148	-0.0001972925093	1.0
270	278.414978	-0.0009999999311	0	-2.010185369e-07	-23.84585571	-0.0002019635722	1.0
271	278.414978	-0.0009999999311	0	1.069815994e-06	-33.69150543	-0.0002071511408	1.0
272	278.414978	-0.0009999999311	0	6.4686119e-06	-36.53850555	-0.0002065193257	1.0
[LeftHand]
269	283.2879944	0	0	12.36633682	19.81848526	14.39289284	1.0
270	283.2879944	0	0	16.21852112	20.71350288	16.10660553	1.0
271	283.2879944	0	0	21.13456345	22.92133904	16.7418232	1.0
272	283.2879944	0	0	25.55137062	24.80381775	15.5945015	1.0
[LeftHandThumb1]
269	24.6609993	-15.75	26.8239994	4.417871475	3.900551319	-8.118530273	1.0
270	24.6609993	-15.75	26.8239994	4.605605602	3.512766838	-9.224103928	1.0
271	24.6609993	-15.75	26.8239994	4.993056774	2.881253242	-10.50365639	1.0
272	24.6609993	-15.75	26.8239994	5.661455631	2.07016921	-11.8120079	1.0
[LeftHandThumb2]
269	32.29800034	-18.64699936	18.64699936	1.210534215	-0.1870944798	-1.054802895	1.0
270	32.29800034	-18.64699936	18.64699936	1.211455107	-0.1875699759	-1.054411054	1.0
271	32.29800034	-18.64699936	18.64699936	1.21301806	-0.188497752	-1.053358912	1.0
272	32.29800034	-18.64699936	18.64699936	1.214916229	-0.189693898	-1.051774621	1.0
[LeftHandThumb3]
269	26.52600098	-15.31499958	15.31499958	-5.287071228	-5.729334831	4.065518379	1.0
270	26.52600098	-15.31499958	15.31499958	-5.074305058	-5.405387402	3.987712145	1.0
271	26.52600098	-15.31499958	15.31499958	-4.711405754	-4.847167492	3.865206957	1.0
272	26.52600098	-15.31499958	15.31499958	-4.216103554	-4.078038216	3.715611935	1.0
[LeftHandThumb4]
269	19.54599953	-11.28499985	11.28499985	0	0	0	1.0
270	19.54599953	-11.28499985	11.28499985	0	0	0	1.0
271	19.54599953	-11.28499985	11.28499985	0	0	0	1.0
272	19.54599953	-11.28499985	11.28499985	0	0	0	1.0
[LeftHandIndex1]
269	91.09299469	-5.170999527	22.60099792	-0.002012136159	-7.193025589	-8.297007561	1.0
270	91.09299469	-5.170999527	22.60099792	-0.0961638689	-6.910190105	-12.60205555	1.0
271	91.09299469	-5.170999527	22.60099792	-0.3042286932	-6.434539795	-19.05840302	1.0
272	91.09299469	-5.170999527	22.60099792	-0.6947385073	-5.921657562	-27.3657341	1.0
[LeftHandIndex2]
269	36.76399994	0	0	1.139893243e-06	-8.126188186e-05	0.0005712617422	1.0
270	36.76399994	0	0	-1.778806336e-06	-5.041430995e-05	0.0004235491506	1.0
271	36.76399994	0	0	1.075448472e-05	0.001455024583	-0.01213925425	1.0
272	36.76399994	0	0	-1.363465162e-05	0.01490730979	-0.1239586249	1.0
[LeftHandIndex3]
269	28.83100128	0	0	-0.08702749014	1.09137857	-9.117464066	1.0
270	28.83100128	0	0	-0.08686970174	1.090442061	-9.109667778	1.0
271	28.83100128	0	0	-0.08484054357	1.077681065	-9.002102852	1.0
272	28.83100128	0	0	-0.08013786376	1.047603011	-8.748818398	1.0
[LeftHandIndex4]
269	23.92700005	0	0	0	0	0	1.0
270	23.92700005	0	0	0	0	0	1.0
271	23.92700005	0	0	0	0	0	1.0
272	23.92700005	0	0	0	0	0	1.0
[LeftHandMiddle1]
269	95.33399963	0	0	-0.4005145729	3.526461601	-19.68974304	1.0
270	95.33399963	0	0	-0.5208310485	3.692041636	-22.44939232	1.0
271	95.33399963	0	0	-0.7150985003	3.977986574	-26.36167145	1.0
272	95.33399963	0	0	-1.032308698	4.382775784	-31.80386925	1.0
[LeftHandMiddle2]
269	36.98199844	0	0	-0.09254787117	1.126302838	-9.41172123	1.0
270	36.98199844	0	0	-0.105147697	1.199377298	-10.02876091	1.0
271	36.98199844	0	0	-0.1053678393	1.200103283	-10.03504562	1.0
272	36.98199844	0	0	-0.1040335298	1.192466497	-9.970481873	1.0
[LeftHandMiddle3]
269	29.50900078	0	0	-0.343735218	2.149554014	-18.19116783	1.0
270	29.50900078	0	0	-0.3138993084	2.053673506	-17.35491943	1.0
271	29.50900078	0	0	-0.2458721101	1.823586822	-15.35676193	1.0
272	29.50900078	0	0	-0.1851053089	1.58497417	-13.3068676	1.0
[LeftHandMiddle4]
269	28.3390007	0	0	0	0	0	1.0
270	28.3390007	0	0	0	0	0	1.0
271	28.3390007	0	0	0	0	0	1.0
272	28.3390007	0	0	0	0	0	1.0
[LeftHandRing1]
269	91.04499817	-0.4390000105	-18.65100098	-0.9557928443	13.41687679	-31.92992973	1.0
270	91.04499817	-0.4390000105	-18.65100098	-1.081354856	13.40200138	-33.77815247	1.0
271	91.04499817	-0.4390000105	-18.65100098	-1.23988688	13.47395897	-36.01822662	1.0
272	91.04499817	-0.4390000105	-18.65100098	-1.523678541	13.74897766	-39.81277847	1.0
[LeftHandRing2]
269	31.54000092	0	0	-0.6053897738	2.825442791	-24.23280334	1.0
270	31.54000092	0	0	-0.6263028383	2.868314266	-24.62994003	1.0
271	31.54000092	0	0	-0.5530657172	2.703056812	-23.12295532	1.0
272	31.54000092	0	0	-0.4561343789	2.463592529	-20.97014236	1.0
[LeftHandRing3]
269	29.37700081	0	0	-0.7618615627	3.150934458	-27.24397278	1.0
270	29.37700081	0	0	-0.6614390016	2.939581633	-25.2928524	1.0
271	29.37700081	0	0	-0.4532274604	2.456388712	-20.90525436	1.0
272	29.37700081	0	0	-0.2583401203	1.859327555	-15.67220116	1.0
[LeftHandRing4]
269	26.47500038	0	0	0	0	0	1.0
270	26.47500038	0	0	0	0	0	1.0
271	26.47500038	0	0	0	0	0	1.0
272	26.47500038	0	0	0	0	0	1.0
[LeftHandPinky1]
269	80.77799988	-4.887000084	-38.06099701	-1.695682049	30.1099968	-47.03004837	1.0
270	80.77799988	-4.887000084	-38.06099701	-1.841771364	29.96398163	-48.41495895	1.0
271	80.77799988	-4.887000084	-38.06099701	-1.956310868	29.90912247	-49.50803375	1.0
272	80.77799988	-4.887000084	-38.06099701	-2.268829584	30.17211151	-52.58482742	1.0
[LeftHandPinky2]
269	36	0	0	1.049239516	1.095876336	-38.74829102	1.0
270	36	0	0	1.044649363	1.091310501	-38.7194252	1.0
271	36	0	0	1.098324418	0.58687222	-35.09622955	1.0
272	36	0	0	1.11782074	-0.1674553156	-29.71103287	1.0
[LeftHandPinky3]
269	21.14200211	0	0	-1.695801497	4.524743557	-41.14521027	1.0
270	21.14200211	0	0	-1.452062726	4.21926403	-37.87847137	1.0
271	21.14200211	0	0	-1.006521344	3.582088232	-31.37980652	1.0
272	21.14200211	0	0	-0.593958199	2.792170286	-23.94456482	1.0
[LeftHandPinky4]
269	19.75699997	0	0	0	0	0	1.0
270	19.75699997	0	0	0	0	0	1.0
271	19.75699997	0	0	0	0	0	1.0
272	19.75699997	0	0	0	0	0	1.0
[RightShoulder]
269	-45.70000076	109.4620056	-26.28000069	2.671084881	6.650324345	19.85896301	1.0
270	-45.70000076	109.4620056	-26.28000069	2.6442976	6.32666254	20.48682213	1.0
271	-45.70000076	109.4620056	-26.28000069	2.65458107	6.852331638	19.12734413	1.0
272	-45.70000076	109.4620056	-26.28000069	2.48112154	7.103649616	16.72577858	1.0
[RightArm]
269	-105.9280014	-5.248000145	-22.32099915	-2.686007738	46.4779892	34.65087891	1.0
270	-105.9280014	-5.248000145	-22.32099915	12.84917831	42.65760422	37.95014191	1.0
271	-105.9280014	-5.248000145	-22.32099915	21.46982956	38.56612015	38.9716568	1.0
272	-105.9280014	-5.248000145	-22.32099915	26.13826942	35.5890007	40.19467545	1.0
[RightForeArm]
269	-278.414978	0	0	1.621238653e-06	60.33148575	-1.238051482e-05	1.0
270	-278.414978	0	0	-4.653652468e-06	66.62634277	-3.408169505e-05	1.0
271	-278.414978	0	0	-3.048774306e-05	74.20927429	-6.037364074e-05	1.0
272	-278.414978	0	0	-2.709170076e-06	79.86697388	1.717974556e-05	1.0
[RightHand]
269	-283.2879944	0	0.0009999999311	20.08223152	3.124183178	-21.54077339	1.0
270	-283.2879944	0	0.0009999999311	24.25918007	-1.977421761	-18.01594543	1.0
271	-283.2879944	0	0.0009999999311	28.16767693	-6.231069088	-14.86521053	1.0
272	-283.2879944	0	0.0009999999311	30.50733376	-9.446448326	-12.85771656	1.0
[RightHandPinky1]
269	-80.76699829	-4.885000229	-38.06000137	-1.005394816	-21.81344032	35.47764587	1.0
270	-80.76699829	-4.885000229	-38.06000137	-1.708273292	-22.58977127	44.11637497	1.0
271	-80.76699829	-4.885000229	-38.06000137	-2.294961452	-23.08064461	50.37861252	1.0
272	-80.76699829	-4.885000229	-38.06000137	-2.446548939	-23.19668388	51.92884445	1.0
[RightHandPinky2]
269	-36	0	0.0009999999311	-3.18234992	-5.823498249	57.26901245	1.0
270	-36	0	0.0009999999311	-4.28849268	-6.41319561	67.65090942	1.0
271	-36	0	0.0009999999311	-4.926337719	-6.629105568	73.22062683	1.0
272	-36	0	0.0009999999311	-4.74688673	-6.580952168	71.68618011	1.0
[RightHandPinky3]
269	-21.14200211	0	0	-1.291545153	-4.030852318	35.51644135	1.0
270	-21.14200211	0	0	-1.874393344	-4.753211498	43.18153	1.0
271	-21.14200211	0	0	-2.137304068	-5.007734776	46.20418549	1.0
272	-21.14200211	0	0	-1.857515812	-4.734698772	42.97430801	1.0
[RightHandPinky4]
269	-19.75699997	0	0	0	0	0	1.0
270	-19.75699997	0	0	0	0	0	1.0
271	-19.75699997	0	0	0	0	0	1.0
272	-19.75699997	0	0	0	0	0	1.0
[RightHandRing1]
269	-91.03599548	-0.4390000105	-18.65100098	-0.2577036917	-9.454897881	17.13404655	1.0
270	-91.03599548	-0.4390000105	-18.65100098	-0.643750906	-9.817060471	25.68755341	1.0
271	-91.03599548	-0.4390000105	-18.65100098	-1.081522346	-9.99385643	32.90457535	1.0
272	-91.03599548	-0.4390000105	-18.65100098	-1.253500462	-9.85756588	35.39532471	1.0
[RightHandRing2]
269	-31.54000092	0	0	-0.4589295983	-2.479434013	20.90467072	1.0
270	-31.54000092	0	0	-0.6816596985	-3.003916264	25.60876465	1.0
271	-31.54000092	0	0	-0.8476163745	-3.325161934	28.59413338	1.0
272	-31.54000092	0	0	-0.8217568398	-3.281230927	28.1738224	1.0
[RightHandRing3]
269	-29.37700081	0	0	-6.66972065	-2.80292201	23.73788452	1.0
270	-29.37700081	0	0	-8.402013779	-3.329152346	28.61531639	1.0
271	-29.37700081	0	0	-9.139512062	-3.556478739	30.79572105	1.0
272	-29.37700081	0	0	-8.90262413	-3.349189281	28.80690002	1.0
[RightHandRing4]
269	-26.47500038	0	0	0	0	0	1.0
270	-26.47500038	0	0	0	0	0	1.0
271	-26.47500038	0	0	0	0	0	1.0
272	-26.47500038	0	0	0	0	0	1.0
[RightHandMiddle1]
269	-95.32500458	0	0	-0.02700777352	0.8860951662	4.43821907	1.0
270	-95.32500458	0	0	-0.1566352546	1.264546752	12.43081284	1.0
271	-95.32500458	0	0	-0.3677117825	1.790241718	19.06347656	1.0
272	-95.32500458	0	0	-0.5112653375	2.254544497	22.60802841	1.0
[RightHandMiddle2]
269	-36.98199844	0	0	-0.06283570081	-0.9342902899	7.719807625	1.0
270	-36.98199844	0	0	-0.08575800061	-1.085216641	8.978140831	1.0
271	-36.98199844	0	0	-0.1256138682	-1.31577158	10.90640354	1.0
272	-36.98199844	0	0	-0.1432913989	-1.40495491	11.65573883	1.0
[RightHandMiddle3]
269	-29.50900078	0	0	-4.373020172	-1.24324429	10.27242374	1.0
270	-29.50900078	0	0	-5.336181164	-1.412713528	11.70321846	1.0
271	-29.50900078	0	0	-5.6355896	-1.516573191	12.57993984	1.0
272	-29.50900078	0	0	-5.825160503	-1.419762015	11.76386547	1.0
[RightHandMiddle4]
269	-28.3390007	0	0.0009999999311	0	0	0	1.0
270	-28.3390007	0	0.0009999999311	0	0	0	1.0
271	-28.3390007	0	0.0009999999311	0	0	0	1.0
272	-28.3390007	0	0.0009999999311	0	0	0	1.0
[RightHandIndex1]
269	-91.08300018	-5.167999744	22.60099792	0.08676659316	10.9150362	-3.810792923	1.0
270	-91.08300018	-5.167999744	22.60099792	0.1443197876	12.23677731	4.897818565	1.0
271	-91.08300018	-5.167999744	22.60099792	0.06801413	13.62289715	12.59051228	1.0
272	-91.08300018	-5.167999744	22.60099792	-0.003476123558	14.68797207	16.62968636	1.0
[RightHandIndex2]
269	-36.76399994	0	0	0.007626439445	-0.1389466971	1.135712981	1.0
270	-36.76399994	0	0	0.0006375584635	0.02379318699	-0.1960913986	1.0
271	-36.76399994	0	0	2.929943321e-06	3.180554719e-15	-1.590277359e-15	1.0
272	-36.76399994	0	0	1.708873469e-06	-2.741117896e-06	4.259098932e-05	1.0
[RightHandIndex3]
269	-28.83100128	0	0	0.0001961293892	0.03744764253	-0.3089875877	1.0
270	-28.83100128	0	0	-0.004201519769	0.2534986734	-2.088618279	1.0
271	-28.83100128	0	0	-0.008641357534	0.3466019928	-2.856248379	1.0
272	-28.83100128	0	0	-0.01003086008	0.3739851415	-3.082210302	1.0
[RightHandIndex4]
269	-23.92700005	0	0	0	0	0	1.0
270	-23.92700005	0	0	0	0	0	1.0
271	-23.92700005	0	0	0	0	0	1.0
272	-23.92700005	0	0	0	0	0	1.0
[RightHandThumb1]
269	-24.64799881	-15.72700024	26.82600021	7.886139393	-14.4762888	-11.56458569	1.0
270	-24.64799881	-15.72700024	26.82600021	7.991035938	-13.40470982	-9.354060173	1.0
271	-24.64799881	-15.72700024	26.82600021	7.919029713	-12.25702095	-7.430446625	1.0
272	-24.64799881	-15.72700024	26.82600021	7.683454037	-11.30484295	-6.209133148	1.0
[RightHandThumb2]
269	-32.29800034	-18.64699936	18.64699936	2.060238361	0.3369082808	1.680927396	1.0
270	-32.29800034	-18.64699936	18.64699936	2.060239792	0.3369125426	1.68091929	1.0
271	-32.29800034	-18.64699936	18.64699936	2.060263872	0.3368813992	1.680889487	1.0
272	-32.29800034	-18.64699936	18.64699936	2.060278654	0.3369070292	1.680877805	1.0
[RightHandThumb3]
269	-26.52600098	-15.31399918	15.31399918	-4.10599184	4.510325909	-3.064730167	1.0
270	-26.52600098	-15.31399918	15.31399918	-4.433286667	5.015809059	-3.183275461	1.0
271	-26.52600098	-15.31399918	15.31399918	-4.701255322	5.430440903	-3.278116703	1.0
272	-26.52600098	-15.31399918	15.31399918	-4.882168293	5.710740566	-3.340634584	1.0
[RightHandThumb4]
269	-19.54599953	-11.28499985	11.28499985	0	0	0	1.0
270	-19.54599953	-11.28499985	11.28499985	0	0	0	1.0
271	-19.54599953	-11.28499985	11.28499985	0	0	0	1.0
272	-19.54599953	-11.28499985	11.28499985	0	0	0	1.0
[LeftUpLeg]
269	82.07800293	-67.51699829	-15.99599934	-0.1649380624	-3.422911644	-6.375498772	1.0
270	82.07800293	-67.51699829	-15.99599934	-2.344138622	-6.374655724	-0.7334054708	1.0
271	82.07800293	-67.51699829	-15.99599934	-6.709300518	-5.772233963	5.36275816	1.0
272	82.07800293	-67.51699829	-15.99599934	-9.872320175	-5.325973511	9.165557861	1.0
[LeftLeg]
269	0	-443.7049866	2.845999956	28.94212341	10.92695999	-6.329129219	1.0
270	0	-443.7049866	2.845999956	32.93444443	10.90843868	-5.633571148	1.0
271	0	-443.7049866	2.845999956	40.37578964	11.40180588	-3.347938299	1.0
272	0	-443.7049866	2.845999956	42.20059586	8.97078228	-1.101429939	1.0
[LeftFoot]
269	0	-444.2789917	-29.8219986	-21.68491554	13.91210842	-3.421217918	1.0
270	0	-444.2789917	-29.8219986	-17.23854446	16.02612305	-5.46519804	1.0
271	0	-444.2789917	-29.8219986	-10.45667553	13.19634819	-5.190560341	1.0
272	0	-444.2789917	-29.8219986	-8.750899315	10.37318993	-0.4653542936	1.0
[LeftToeBase]
269	0	-87.28699493	107.1060028	-4.564101696	4.070851105e-07	2.20567199e-06	1.0
270	0	-87.28699493	107.1060028	-9.508756638	0.006018202752	0.0279795602	1.0
271	0	-87.28699493	107.1060028	-16.31674957	2.279936552e-06	-2.310826858e-06	1.0
272	0	-87.28699493	107.1060028	-14.27835369	-0.3434686959	-1.59483695	1.0
[RightUpLeg]
269	-82.07800293	-67.51699829	-15.99599934	-25.6332016	-20.86681366	-11.82927227	1.0
270	-82.07800293	-67.51699829	-15.99599934	-15.98116302	-19.2765007	-8.091673851	1.0
271	-82.07800293	-67.51699829	-15.99599934	-6.950368404	-14.75424767	-2.642668962	1.0
272	-82.07800293	-67.51699829	-15.99599934	-1.94763267	-10.66830158	4.027050495	1.0
[RightLeg]
269	0	-443.7049866	2.861999989	62.48097992	-6.253483295	-7.739191532	1.0
270	0	-443.7049866	2.861999989	55.04129791	-7.637981415	-6.920716763	1.0
271	0	-443.7049866	2.861999989	42.15272903	-9.442171097	-5.401711464	1.0
272	0	-443.7049866	2.861999989	30.76496124	-10.70709515	-3.237890482	1.0
[RightFoot]
269	0	-444.2770081	-29.83799934	-8.807180405	-20.607584	3.588894129	1.0
270	0	-444.2770081	-29.83799934	-7.650495052	-17.28277779	6.828749657	1.0
271	0	-444.2770081	-29.83799934	-15.92593384	-13.53996277	12.36396313	1.0
272	0	-444.2770081	-29.83799934	-21.52747345	-17.75086212	11.41525459	1.0
[RightToeBase]
269	0	-87.28699493	107.1060028	0.2712954581	0.1087295413	3.555538177	1.0
270	0	-87.28699493	107.1060028	-10.75962734	0.4911081195	4.499342918	1.0
271	0	-87.28699493	107.1060028	-11.99562263	-0.2785413265	-1.411291838	1.0
272	0	-87.28699493	107.1060028	-5.145368099	-0.05601992458	-0.3221807182	1.0
[EndOfFile]
